# Blender v2.90.1 OBJ File: ''
# www.blender.org
mtllib square_pyramid.mtl
o Cube
v 0.000000 1.000000 0.000000
v 1.000000 -1.000000 -1.000000
v 1.000000 -1.000000 1.000000
v -1.000000 -1.000000 -1.000000
v -1.000000 -1.000000 1.000000
vt 0.375000 0.750000
vt 0.625000 1.000000
vt 0.375000 1.000000
vt 0.375000 0.000000
vt 0.625000 0.250000
vt 0.375000 0.250000
vt 0.375000 0.500000
vt 0.125000 0.750000
vt 0.125000 0.500000
vt 0.625000 0.750000
vt 0.625000 0.500000
vn 0.6626 -0.3490 0.6626
vn 0.0000 1.0000 0.0000
vn -0.6626 -0.3490 0.6626
vn -0.6626 -0.3490 -0.6626
vn 0.6626 -0.3490 -0.6626
usemtl Material
s 1
f 3/1/1 1/2/2 5/3/3
f 5/4/3 1/5/2 4/6/4
f 2/7/5 5/8/3 4/9/4
f 2/7/5 1/10/2 3/1/1
f 4/6/4 1/11/2 2/7/5
f 2/7/5 3/1/1 5/8/3
